<svg width="40" height="40" viewBox="0 0 40 40" fill="none" xmlns="http://www.w3.org/2000/svg">
  <!-- Background circle -->
  <circle cx="20" cy="20" r="20" fill="url(#gradient)"/>
  
  <!-- Hub/gear icon -->
  <g transform="translate(8, 8)">
    <!-- Center circle -->
    <circle cx="12" cy="12" r="4" fill="white"/>
    
    <!-- Gear teeth -->
    <rect x="10" y="2" width="4" height="3" rx="1" fill="white"/>
    <rect x="10" y="23" width="4" height="3" rx="1" fill="white"/>
    <rect x="2" y="10" width="3" height="4" rx="1" fill="white"/>
    <rect x="23" y="10" width="3" height="4" rx="1" fill="white"/>
    
    <!-- Diagonal teeth -->
    <rect x="4" y="4" width="3" height="2" rx="1" fill="white" transform="rotate(-45 5.5 5)"/>
    <rect x="21" y="4" width="3" height="2" rx="1" fill="white" transform="rotate(45 22.5 5)"/>
    <rect x="4" y="22" width="3" height="2" rx="1" fill="white" transform="rotate(45 5.5 23)"/>
    <rect x="21" y="22" width="3" height="2" rx="1" fill="white" transform="rotate(-45 22.5 23)"/>
  </g>
  
  <!-- Gradient definition -->
  <defs>
    <linearGradient id="gradient" x1="0%" y1="0%" x2="100%" y2="100%">
      <stop offset="0%" style="stop-color:#667eea;stop-opacity:1" />
      <stop offset="100%" style="stop-color:#764ba2;stop-opacity:1" />
    </linearGradient>
  </defs>
</svg> 